<svg id="Layer_1" data-name="Layer 1" xmlns="http://www.w3.org/2000/svg" viewBox="0 0 225.83 138.84"><defs><style>.cls-1{fill:#fff;}.cls-2{fill:#b54343;}</style></defs><rect class="cls-1" x="0.58" y="-0.27" width="225.56" height="138.4" transform="translate(-0.58 0.72) rotate(-0.11)"/><path class="cls-2" d="M54.37,118.56V112h3.11v.64H55.08v2.31h2.08v.64H55.08v2.39h2.39v.63Z" transform="translate(-0.44 0.49)"/><path class="cls-2" d="M70.16,118.53l-1.34-2.7h-.06l-1.33,2.7h-.77l1.69-3.32L66.66,112h.81l1.33,2.66h0l1.32-2.65h.78l-1.67,3.26,1.7,3.33Z" transform="translate(-0.44 0.49)"/><path class="cls-2" d="M80.44,111.92h2a1.54,1.54,0,0,1,1,.26,1.2,1.2,0,0,1,.44.69,5.39,5.39,0,0,1,.1,1.11,4.79,4.79,0,0,1-.1,1.1,1.26,1.26,0,0,1-.43.69,1.6,1.6,0,0,1-1,.27H81.16v2.46h-.72Zm1.77,3.5a1.19,1.19,0,0,0,.67-.15.69.69,0,0,0,.28-.45,4.38,4.38,0,0,0,.06-.84,4.58,4.58,0,0,0-.06-.85.75.75,0,0,0-.28-.44,1.26,1.26,0,0,0-.67-.14h-1v2.87Z" transform="translate(-0.44 0.49)"/><path class="cls-2" d="M93.55,118.48v-6.59h3.11v.63h-2.4v2.31h2.08v.63H94.27v2.39h2.4v.64Z" transform="translate(-0.44 0.49)"/><path class="cls-2" d="M109.26,118.45l-.83-2.65h-1.37v2.66h-.72v-6.59h2a1.78,1.78,0,0,1,1,.25,1.18,1.18,0,0,1,.43.66,5,5,0,0,1,.11,1.06,4,4,0,0,1-.15,1.19,1,1,0,0,1-.64.66l.9,2.77Zm-.42-3.42a.62.62,0,0,0,.29-.41,4,4,0,0,0,.06-.78,3.17,3.17,0,0,0-.07-.79.63.63,0,0,0-.27-.41,1.19,1.19,0,0,0-.67-.14h-1.12v2.68h1.11A1.19,1.19,0,0,0,108.84,115Z" transform="translate(-0.44 0.49)"/><path class="cls-2" d="M119.75,118.43v-6.59h.72v6.59Z" transform="translate(-0.44 0.49)"/><path class="cls-2" d="M130.48,118.41v-6.59h3.11v.63h-2.39v2.31h2.08v.63h-2.08v2.39h2.39v.64Z" transform="translate(-0.44 0.49)"/><path class="cls-2" d="M146.27,118.38,144,113.32h0v5.06h-.68l0-6.59H144l2.24,5h0v-5H147v6.59Z" transform="translate(-0.44 0.49)"/><path class="cls-2" d="M159.33,118.4l-.57,0a2.45,2.45,0,0,1-1.27-.25,1.42,1.42,0,0,1-.53-1,12,12,0,0,1-.15-2.17,12.28,12.28,0,0,1,.14-2.16,1.4,1.4,0,0,1,.53-.94,2.31,2.31,0,0,1,1.26-.27,3.82,3.82,0,0,1,.57,0,2.7,2.7,0,0,1,.49.09v.59a5.66,5.66,0,0,0-.9-.09,1.76,1.76,0,0,0-.93.18.94.94,0,0,0-.35.71,15,15,0,0,0-.08,1.85,13,13,0,0,0,.09,1.86.94.94,0,0,0,.35.71,1.89,1.89,0,0,0,.93.17,4.73,4.73,0,0,0,.93-.09v.61A4.6,4.6,0,0,1,159.33,118.4Z" transform="translate(-0.44 0.49)"/><path class="cls-2" d="M169.46,118.34v-6.59h3.11v.63h-2.39v2.3h2.08v.63h-2.08v2.38h2.39v.63Z" transform="translate(-0.44 0.49)"/><path class="cls-2" d="M174.88,80.27l-2.53,6.64h5l-2.45-6.63m8.61,11.64a3.07,3.07,0,0,0,.73,1.18,1.41,1.41,0,0,0,.82.39V94c-1,0-2.23-.07-3.73-.06-1.69,0-2.93,0-3.74.08V93.5a3.59,3.59,0,0,0,1.32-.24.66.66,0,0,0,.41-.67,3.56,3.56,0,0,0-.31-1.16l-1.48-4h-5.35l-.65,1.69a8,8,0,0,0-.66,2.74,1.41,1.41,0,0,0,.54,1.27,3.12,3.12,0,0,0,1.63.39V94c-1.1,0-2.12-.07-3.05-.07-.75,0-1.37,0-1.87.08v-.5c.82-.13,1.52-1,2.11-2.58l5.58-14.39c.26,0,.54,0,.85,0a7.24,7.24,0,0,0,.85,0Zm-21.55-14.8a2.42,2.42,0,0,0-1.18.41,1.62,1.62,0,0,0-.51.94,9.67,9.67,0,0,0-.14,1.89l0,13.72h-1.26l-10.7-13.49,0,9.43a10.64,10.64,0,0,0,.16,2.13,1.54,1.54,0,0,0,.65,1,3.66,3.66,0,0,0,1.59.42V94C150,94,149.08,94,148,94c-.91,0-1.62,0-2.14.08v-.49a2.38,2.38,0,0,0,1.18-.42,1.65,1.65,0,0,0,.52-.94,10.74,10.74,0,0,0,.13-1.89l0-11.06a5.2,5.2,0,0,0-.14-1.35.88.88,0,0,0-.51-.57,3.79,3.79,0,0,0-1.19-.19v-.49c.52,0,1.23.07,2.13.07s1.53,0,2.12-.08l9.53,11.7V80.65a9.93,9.93,0,0,0-.16-2.13,1.53,1.53,0,0,0-.64-1,3.93,3.93,0,0,0-1.6-.41v-.5c.64,0,1.52.07,2.66.07.91,0,1.62,0,2.13-.08Zm-23.91,0a3.76,3.76,0,0,0-1.2.2.84.84,0,0,0-.5.58,4.75,4.75,0,0,0-.13,1.34l0,12.19a4.79,4.79,0,0,0,.14,1.35.85.85,0,0,0,.5.57,3.81,3.81,0,0,0,1.2.19v.49c-.88,0-2.11-.07-3.72-.06s-3,0-3.87.08v-.49a3.61,3.61,0,0,0,1.18-.2.89.89,0,0,0,.52-.58,4.75,4.75,0,0,0,.13-1.34l0-12.19a4.88,4.88,0,0,0-.13-1.35.9.9,0,0,0-.52-.57,3.67,3.67,0,0,0-1.18-.19v-.49c.82,0,2.11.07,3.87.06,1.6,0,2.84,0,3.71-.08Zm-19.17-.45c1.1,0,2.13.07,3.07.07.75,0,1.38,0,1.87-.08v.49a3.25,3.25,0,0,0-1.21.95,6.37,6.37,0,0,0-1,2l-5.16,14c-.18,0-.47,0-.86,0a8.18,8.18,0,0,0-.83,0l-6.3-15.38a3,3,0,0,0-.74-1.18,1.41,1.41,0,0,0-.82-.39v-.49c1,0,2.24.07,3.75.07,1.67,0,2.91,0,3.73-.08v.49a3.84,3.84,0,0,0-1.33.22.72.72,0,0,0-.4.7,3.94,3.94,0,0,0,.3,1.15l4.36,11,3-8.15a9.65,9.65,0,0,0,.68-3,1.8,1.8,0,0,0-.53-1.44,2.42,2.42,0,0,0-1.54-.48ZM92.93,80.43,90.4,87.07h5Zm8.61,11.64a3.07,3.07,0,0,0,.74,1.18,1.39,1.39,0,0,0,.81.39v.49c-1,0-2.23-.07-3.73-.06-1.68,0-2.92,0-3.73.08v-.49A3.68,3.68,0,0,0,97,93.42a.67.67,0,0,0,.4-.67,3.74,3.74,0,0,0-.3-1.16l-1.48-4H90.21l-.64,1.69A8.08,8.08,0,0,0,88.9,92a1.41,1.41,0,0,0,.54,1.27,3.19,3.19,0,0,0,1.64.39v.5c-1.11,0-2.12-.07-3-.07-.75,0-1.38,0-1.87.07v-.49c.81-.13,1.51-1,2.11-2.58L93.84,76.7c.26,0,.55,0,.85,0a7.42,7.42,0,0,0,.86,0ZM71.07,85.44a3.77,3.77,0,0,0,2.15-.53,2.64,2.64,0,0,0,1.07-1.41,6.8,6.8,0,0,0,.29-2.14,5.32,5.32,0,0,0-.72-3,2.64,2.64,0,0,0-2.33-1,2,2,0,0,0-1,.18.92.92,0,0,0-.44.61A6.13,6.13,0,0,0,70,79.4v6Zm9.87,7.65a4.23,4.23,0,0,1-1.43,1.1,4.43,4.43,0,0,1-1.83.34,3.78,3.78,0,0,1-2.25-.6,3,3,0,0,1-1.08-2.06l-.45-2.45a15.69,15.69,0,0,0-.45-1.91,2.81,2.81,0,0,0-.68-1.15,1.61,1.61,0,0,0-1.16-.43H70l0,5.65a4.75,4.75,0,0,0,.13,1.34.85.85,0,0,0,.51.58,3.76,3.76,0,0,0,1.2.19v.49c-.87,0-2.11-.07-3.71-.06s-3,0-3.88.08v-.49a4,4,0,0,0,1.19-.2.85.85,0,0,0,.51-.58,4.79,4.79,0,0,0,.13-1.34l0-12.19A4.79,4.79,0,0,0,66,78.06a.86.86,0,0,0-.51-.57,3.52,3.52,0,0,0-1.19-.19v-.49c.83,0,2.08.06,3.73.06l2.19,0,1.67,0a9.43,9.43,0,0,1,5.1,1.1,3.54,3.54,0,0,1,1.72,3.15,4.47,4.47,0,0,1-.51,2.08,4.37,4.37,0,0,1-1.75,1.71,8.26,8.26,0,0,1-3.26,1h0a8.63,8.63,0,0,1,2.44.5,3.47,3.47,0,0,1,1.5,1,4,4,0,0,1,.76,1.7l.57,2.53A4.42,4.42,0,0,0,78.89,93a.83.83,0,0,0,.73.38,1.12,1.12,0,0,0,.5-.14,2.24,2.24,0,0,0,.49-.43ZM47.52,91.64A4.74,4.74,0,0,0,47.65,93a.85.85,0,0,0,.47.57,3,3,0,0,0,1.1.15q3.41,0,3.41-4.31a4,4,0,0,0-1-2.94,4.17,4.17,0,0,0-3.1-1h-1Zm1-6.64a2.4,2.4,0,0,0,2.24-1.1A5.73,5.73,0,0,0,51.43,81a5.14,5.14,0,0,0-.58-2.75,2,2,0,0,0-1.83-.9,2.18,2.18,0,0,0-1,.17.91.91,0,0,0-.43.62,5.35,5.35,0,0,0-.12,1.32V85Zm1.95.09a10.71,10.71,0,0,1,3.57.8,4.79,4.79,0,0,1,2,1.57,3.57,3.57,0,0,1,.62,2,4.22,4.22,0,0,1-.81,2.6,4.89,4.89,0,0,1-2.34,1.62,10.86,10.86,0,0,1-3.63.56l-1.8,0c-.85,0-1.71,0-2.57,0-1.69,0-3,0-3.79.08v-.49A4.05,4.05,0,0,0,43,93.57a.9.9,0,0,0,.51-.58,4.51,4.51,0,0,0,.13-1.35l0-12.19a4.71,4.71,0,0,0-.14-1.34.85.85,0,0,0-.51-.58,3.74,3.74,0,0,0-1.19-.19v-.49c.82.05,2.07.07,3.73.07l2.19,0,1.67,0a9.87,9.87,0,0,1,3.34.48,4.39,4.39,0,0,1,2,1.35,3.21,3.21,0,0,1,.69,2,3.46,3.46,0,0,1-.53,1.79,4.81,4.81,0,0,1-1.63,1.56,8,8,0,0,1-2.74,1Z" transform="translate(-0.44 0.49)"/><path class="cls-2" d="M132.87,21.71a3.26,3.26,0,0,0-1.56-.18,1.29,1.29,0,0,0-.73.36,1.21,1.21,0,0,0-.3.61,1.11,1.11,0,0,0,.1.68,1.22,1.22,0,0,0,.59.49,1.1,1.1,0,0,0,.62.07,1,1,0,0,0,.58-.36,3.54,3.54,0,0,0,.7-1.67M135.93,33a3.31,3.31,0,0,0-1.27-.93,1.24,1.24,0,0,0-.82-.05h0a1.16,1.16,0,0,0-.51.36,1.09,1.09,0,0,0-.26.65,1.15,1.15,0,0,0,.27.71,1.11,1.11,0,0,0,.49.37,1.06,1.06,0,0,0,.7,0A3.58,3.58,0,0,0,135.93,33Zm-3,11.33a3.28,3.28,0,0,0-.63-1.44,1.28,1.28,0,0,0-.69-.46,1.15,1.15,0,0,0-.66,0l-.05,0a1,1,0,0,0-.49.41,1.12,1.12,0,0,0-.13.75,1.16,1.16,0,0,0,.24.57,1.08,1.08,0,0,0,.61.33A3.69,3.69,0,0,0,132.91,44.35Zm-8.27,8.29a3.37,3.37,0,0,0,.17-1.56,1.29,1.29,0,0,0-.36-.73,1.18,1.18,0,0,0-.6-.3,1.15,1.15,0,0,0-.69.11,1.14,1.14,0,0,0-.48.58A1,1,0,0,0,123,52,3.6,3.6,0,0,0,124.64,52.64ZM113.33,55.7a3.54,3.54,0,0,0,.93-1.27,1.31,1.31,0,0,0,0-.82v0a1.16,1.16,0,0,0-.36-.51,1.14,1.14,0,0,0-.65-.26,1.24,1.24,0,0,0-1.09.76,1.13,1.13,0,0,0,0,.7A3.62,3.62,0,0,0,113.33,55.7Zm-11.33-3a3.28,3.28,0,0,0,1.44-.63,1.34,1.34,0,0,0,.46-.69,1.15,1.15,0,0,0-.06-.66v-.05a1.11,1.11,0,0,0-.41-.49,1.15,1.15,0,0,0-.76-.13,1.16,1.16,0,0,0-.57.24,1,1,0,0,0-.32.61A3.46,3.46,0,0,0,102,52.68Zm-8.3-8.27a3.38,3.38,0,0,0,1.56.17,1.36,1.36,0,0,0,.74-.36,1.16,1.16,0,0,0,.29-.6,1.14,1.14,0,0,0-.1-.69,1.16,1.16,0,0,0-.59-.48,1,1,0,0,0-1.2.28A3.59,3.59,0,0,0,93.7,44.41Zm-3-11.31a3.51,3.51,0,0,0,1.26.93,1.31,1.31,0,0,0,.82,0h0a1.13,1.13,0,0,0,.5-.36,1.07,1.07,0,0,0,.26-.65,1.18,1.18,0,0,0-.27-.72,1.07,1.07,0,0,0-.49-.37,1.1,1.1,0,0,0-.69,0A3.65,3.65,0,0,0,90.65,33.1Zm3-11.33a3.46,3.46,0,0,0,.63,1.44,1.42,1.42,0,0,0,.69.46,1.24,1.24,0,0,0,.66-.05l0,0a1.14,1.14,0,0,0,.5-.41,1.23,1.23,0,0,0,.12-.76,1.16,1.16,0,0,0-.24-.57,1,1,0,0,0-.61-.32A3.48,3.48,0,0,0,93.66,21.77Zm8.27-8.3a3.38,3.38,0,0,0-.17,1.56,1.36,1.36,0,0,0,.36.74,1.2,1.2,0,0,0,.61.29,1,1,0,0,0,.68-.1,1.18,1.18,0,0,0,.49-.59,1.07,1.07,0,0,0,.07-.61,1,1,0,0,0-.36-.59A3.59,3.59,0,0,0,101.93,13.47Zm-1.2-2.07A8.79,8.79,0,0,1,106.24,7a8.83,8.83,0,0,1,4-.15,9,9,0,0,1,3,1.22,8.73,8.73,0,0,1,7-1.1,8.87,8.87,0,0,1,5.54,4.43,8.75,8.75,0,0,1,3.24.46,8.78,8.78,0,0,1,5.46,5.44A8.79,8.79,0,0,1,135,20.5,8.8,8.8,0,0,1,139.54,30a9,9,0,0,1-1.21,3,8.78,8.78,0,0,1-.76,10.49,8.88,8.88,0,0,1-2.57,2,9,9,0,0,1-.46,3.24,8.73,8.73,0,0,1-2.1,3.36,8.62,8.62,0,0,1-3.35,2.1,8.77,8.77,0,0,1-3.24.48,8.74,8.74,0,0,1-5.51,4.44,8.75,8.75,0,0,1-7-1.06,8.8,8.8,0,0,1-3,1.22,8.77,8.77,0,0,1-9.48-4.55,9,9,0,0,1-3.25-.46,8.8,8.8,0,0,1-3.36-2.1,8.62,8.62,0,0,1-2.1-3.35,8.76,8.76,0,0,1-.47-3.24,8.79,8.79,0,0,1-4.45-5.51,8.88,8.88,0,0,1-.15-4,8.68,8.68,0,0,1,1.22-3A8.94,8.94,0,0,1,87,30.06a8.8,8.8,0,0,1,2-7.45,8.72,8.72,0,0,1,2.58-2A8.72,8.72,0,0,1,92,17.34a8.76,8.76,0,0,1,5.44-5.47A8.78,8.78,0,0,1,100.73,11.4Zm9.79-.37a4.86,4.86,0,0,1,1.12-1.72,6.75,6.75,0,0,0-1.82-.62A6.84,6.84,0,0,0,104,10.26a6.75,6.75,0,0,0-1.24,1.43,5.13,5.13,0,0,1,2.11,1,2.9,2.9,0,0,1,.79,3.37,3.14,3.14,0,0,1-1.35,1.57,3,3,0,0,1-1.9.29,3,3,0,0,1-1.62-.79,3.21,3.21,0,0,1-.93-1.8,5,5,0,0,1,.11-2,6.47,6.47,0,0,0-1.88.37,6.86,6.86,0,0,0-4.6,6.13,5.15,5.15,0,0,1,2.34-.17,2.91,2.91,0,0,1,2.37,2.52,3.07,3.07,0,0,1-.4,2,3,3,0,0,1-1.4,1.18l-.09,0a3.12,3.12,0,0,1-1.8.11,3.18,3.18,0,0,1-1.7-1.09,4.85,4.85,0,0,1-.92-1.82,6.4,6.4,0,0,0-1.45,1.25A6.82,6.82,0,0,0,89,26.6a6.72,6.72,0,0,0,.52,4.88,5.11,5.11,0,0,1,1.94-1.31,3,3,0,0,1,2,0,3,3,0,0,1,1.37,1,3.16,3.16,0,0,1,.67,2,3.09,3.09,0,0,1-2.11,2.77l-.07,0a3.18,3.18,0,0,1-2-.09,4.91,4.91,0,0,1-1.71-1.12,6.8,6.8,0,0,0-.62,1.81,6.82,6.82,0,0,0,1.57,5.81,6.75,6.75,0,0,0,1.43,1.24,5.08,5.08,0,0,1,1-2.1,3,3,0,0,1,1.68-1,3,3,0,0,1,1.69.19A3.09,3.09,0,0,1,97.88,42a3.08,3.08,0,0,1-.49,3.51,3.26,3.26,0,0,1-1.8.94,5,5,0,0,1-2-.12,6.73,6.73,0,0,0,.36,1.88,6.91,6.91,0,0,0,1.65,2.62,6.83,6.83,0,0,0,2.62,1.63,7.46,7.46,0,0,0,1.87.36,5.16,5.16,0,0,1-.17-2.34,3,3,0,0,1,1-1.7,2.93,2.93,0,0,1,1.55-.68,3.13,3.13,0,0,1,2,.4,3,3,0,0,1,1.18,1.41l0,.08a3,3,0,0,1,.12,1.8,3.14,3.14,0,0,1-1.09,1.7,4.83,4.83,0,0,1-1.83.93,6.9,6.9,0,0,0,1.26,1.44,6.93,6.93,0,0,0,5.82,1.55,6.9,6.9,0,0,0,1.79-.62,5.13,5.13,0,0,1-1.31-2,3,3,0,0,1,0-1.95,3,3,0,0,1,1-1.37,3.16,3.16,0,0,1,2-.67,3.06,3.06,0,0,1,1.79.69,3,3,0,0,1,1,1.43l0,.07a3.15,3.15,0,0,1-.09,2,4.91,4.91,0,0,1-1.12,1.71,6.8,6.8,0,0,0,1.81.62,6.71,6.71,0,0,0,3.08-.11,6.76,6.76,0,0,0,4-2.89,5,5,0,0,1-2.1-1,2.94,2.94,0,0,1-1-1.68A3,3,0,0,1,120.9,50a3.13,3.13,0,0,1,1.36-1.56,3.06,3.06,0,0,1,3.51.5,3.12,3.12,0,0,1,.93,1.79,4.89,4.89,0,0,1-.11,2,7.12,7.12,0,0,0,1.88-.37,6.91,6.91,0,0,0,2.62-1.65,6.83,6.83,0,0,0,1.63-2.62,7,7,0,0,0,.35-1.86,5,5,0,0,1-2.33.16,3,3,0,0,1-1.7-1,3,3,0,0,1-.68-1.56,3.13,3.13,0,0,1,.4-2,3,3,0,0,1,1.41-1.17l.08,0a3,3,0,0,1,1.8-.11,3.12,3.12,0,0,1,1.7,1.08,5.06,5.06,0,0,1,.93,1.83,7.15,7.15,0,0,0,1.44-1.25,7,7,0,0,0,1.55-5.83,7.17,7.17,0,0,0-.62-1.79,5.13,5.13,0,0,1-2,1.31,2.9,2.9,0,0,1-1.95,0,3,3,0,0,1-1.37-1,3.19,3.19,0,0,1-.67-2,3.08,3.08,0,0,1,2.12-2.76l.07,0a3.15,3.15,0,0,1,2,.09A4.91,4.91,0,0,1,137,31.41a6.86,6.86,0,0,0-.95-7.63,6.51,6.51,0,0,0-1.43-1.24,5,5,0,0,1-1,2.11,2.92,2.92,0,0,1-1.68,1,3,3,0,0,1-1.69-.18,3.18,3.18,0,0,1-1.56-1.36,3.08,3.08,0,0,1,.49-3.51,3.2,3.2,0,0,1,1.8-.94,5.07,5.07,0,0,1,2.05.11,7.2,7.2,0,0,0-.37-1.88A6.8,6.8,0,0,0,131,15.26a6.71,6.71,0,0,0-2.62-1.63,6.59,6.59,0,0,0-1.86-.36,5,5,0,0,1,.16,2.34,2.92,2.92,0,0,1-1,1.69,3.09,3.09,0,0,1-1.56.69,3.19,3.19,0,0,1-2-.4A3.05,3.05,0,0,1,121,16.18a.36.36,0,0,1,0-.09,3,3,0,0,1-.11-1.8,3.15,3.15,0,0,1,1.08-1.7,4.83,4.83,0,0,1,1.83-.92,6.94,6.94,0,0,0-1.25-1.45,6.86,6.86,0,0,0-2.74-1.44,6.86,6.86,0,0,0-4.88.52,5.11,5.11,0,0,1,1.31,1.94,2.9,2.9,0,0,1,0,1.95,3,3,0,0,1-1,1.37,3.19,3.19,0,0,1-2,.67,3.09,3.09,0,0,1-2.76-2.11l0-.07A3.22,3.22,0,0,1,110.52,11Zm2.73-.61a3.29,3.29,0,0,0-.93,1.26,1.24,1.24,0,0,0,0,.82v.05a1.13,1.13,0,0,0,.36.5,1,1,0,0,0,.65.26A1.15,1.15,0,0,0,114,13a1,1,0,0,0,.37-.49,1,1,0,0,0,0-.69A3.52,3.52,0,0,0,113.25,10.42Zm11.33,3a3.4,3.4,0,0,0-1.44.63,1.29,1.29,0,0,0-.46.69,1.07,1.07,0,0,0,0,.66l0,.05a1.07,1.07,0,0,0,.41.5,1.19,1.19,0,0,0,.75.12,1,1,0,0,0,.9-.85A3.71,3.71,0,0,0,124.58,13.43Z" transform="translate(-0.44 0.49)"/><path class="cls-2" d="M103.43,28a6.66,6.66,0,0,0-1.33,3.12,2.76,2.76,0,0,0,.36,1.7,2.44,2.44,0,0,0,1.09,1,2.38,2.38,0,0,0,1.52.17,2.57,2.57,0,0,0,1.37-.95,2.33,2.33,0,0,0,.5-1.26,2.27,2.27,0,0,0-.43-1.48A7,7,0,0,0,103.43,28m20.08,7.7a10.19,10.19,0,0,1-20.32,0,3.07,3.07,0,0,1-.42-.17,4.38,4.38,0,0,1-2-1.7,4.64,4.64,0,0,1-.63-2.87,8.93,8.93,0,0,1,2.12-4.64l0-.06a13.81,13.81,0,0,1,4.83-3.94,13.66,13.66,0,0,1,6-1.41,13.5,13.5,0,0,1,6,1.39,13.8,13.8,0,0,1,4.85,3.91l0,.06a9.52,9.52,0,0,1,2.35,5v0a4.22,4.22,0,0,1-.7,2.71,4.4,4.4,0,0,1-1.91,1.52A3.54,3.54,0,0,1,123.51,35.74ZM122.32,34l.24,0a2.35,2.35,0,0,0,.61-.18,2.39,2.39,0,0,0,1.06-.83,2.3,2.3,0,0,0,.36-1.49v0A7,7,0,0,0,123.05,28a6.54,6.54,0,0,0-2.71,2,2.68,2.68,0,0,0-.54,1.65,2.43,2.43,0,0,0,.47,1.37,2.4,2.4,0,0,0,1.23.91A2.19,2.19,0,0,0,122.32,34Zm-9.91,9.16V40.52l-.55-.07a10.56,10.56,0,0,1-1.48-.33,1,1,0,0,1,.56-1.84,7.5,7.5,0,0,0,1.2.27,8.18,8.18,0,0,0,1.23.09,8.68,8.68,0,0,0,1.26-.1,9.28,9.28,0,0,0,1.21-.28,1,1,0,1,1,.58,1.83,10.7,10.7,0,0,1-1.51.35l-.57.07v2.68a8.24,8.24,0,0,0,4.88-2.37,8.33,8.33,0,0,0,2.35-4.88,4,4,0,0,1-.62-.13,4.43,4.43,0,0,1-3.06-4.08,4.65,4.65,0,0,1,.89-2.79,7.94,7.94,0,0,1,3-2.45,11.85,11.85,0,0,0-17.09,0,8.38,8.38,0,0,1,3.42,2.72,4.16,4.16,0,0,1,.75,2.69,4.41,4.41,0,0,1-.89,2.27,4.54,4.54,0,0,1-2.47,1.67l-.36.06a8.28,8.28,0,0,0,7.27,7.28Z" transform="translate(-0.44 0.49)"/></svg>