<svg id="Layer_1" data-name="Layer 1" xmlns="http://www.w3.org/2000/svg" viewBox="0 0 152 113"><defs><style>.cls-1{fill:#fff;}.cls-2{fill:#b54343;fill-rule:evenodd;}</style></defs><rect class="cls-1" width="152" height="113"/><path class="cls-2" d="M78.23,78.88c0,.46.12.5.12.82a14.08,14.08,0,0,0,.09,2,8,8,0,0,1,.13,1.82.88.88,0,0,0,.08.54,6.43,6.43,0,0,1,.06,1.4c0,.5.13.5.14.85l0,1.89A6,6,0,0,1,79,89.93a1.54,1.54,0,0,0,0,.48,1.94,1.94,0,0,1,.11.34c0,.12,0,.33,0,.4s.1.07.16.32a1.35,1.35,0,0,0,.35.74,3.27,3.27,0,0,0,.78,1c.26.22.27.3.56.43l.3.2a1.51,1.51,0,0,0,.66.28,2.07,2.07,0,0,0,1.18.23c1.58,0,1.32-.17,1.68-.23a3.45,3.45,0,0,0,.81-.36l.21-.16a3.72,3.72,0,0,0,.56-.42l.37-.36s0,0,0,0l.91-1.89a15.67,15.67,0,0,0,0-2.47c0-.2-.09-.35-.11-.57s0-.4,0-.6,0-.7,0-1-.14-.22-.14-.54l0-1.58a1.74,1.74,0,0,0-.12-.55,8.61,8.61,0,0,1,0-1.25,5.06,5.06,0,0,0-.14-1.19c0-.42,0-.86,0-1.3s-.08-.32-.11-.54,0-.32,0-.56,0-1,0-1.29-.06-.26-.12-.54c-.11-.52,0-1.38,0-1.94a2.42,2.42,0,0,1-.16-1.21c0-.22,0-.46,0-.68s-.1-.15-.15-.47a2,2,0,0,0-.07-.61c-.07-.15,0,.06-.1-.21-.13-.56-.1-.24-.16-.51a1.51,1.51,0,0,0-.15-.35c0-.06,0,0,0-.1-.08-.22,0-.06-.11-.21l-.26-.42c-.1-.12-.11-.24-.22-.36l-.8-1,0,0,0,0-1.18-1c-.35-.32-.66-.51-1.1-.93s-.44-.3-.72-.58l-.33-.31a2.39,2.39,0,0,0-.54-.45l-2.29-2a3.22,3.22,0,0,1-.82-1,1.73,1.73,0,0,1-.19-.62c0-.23,0-.43,0-.64s0-.34,0-.53c0-.76.16-.5.15-1.17a9.27,9.27,0,0,1,.16-1.13c0-1,.15-1,.16-1.58,0-.42.19-.2.18-.72a.85.85,0,0,1,0-.4c.12-.21.24-.2,0-.59.06-.19.1-.07.13-.28s0-.25,0-.35c0-.29.12-.32.15-.59s0-.5,0-.73c0-.43.14-.2.15-.57a4.26,4.26,0,0,1,0-.73,2.68,2.68,0,0,0,.12-.59,1.79,1.79,0,0,1,.08-.66c.1-.23,0-.4.16-.54.11,0,.46.54.58.68l.41.53c.12.18.32.33.42.52l.82,1.08c.11.11.22.22.31.33.23.32.16.2.48.47a3.49,3.49,0,0,0,1,.6,1.53,1.53,0,0,0,.25.06c.16.05.1.06.21.1a2.76,2.76,0,0,0,.57.06c.24,0,.17.14.48.14s.22,0,.39,0,.23,0,.38,0l3.61,0c.56,0,1,.12,1.67.12,1.89,0,3.78,0,5.68.14.29,0,.24,0,.45,0s.23-.05.47-.08l.59-.22c.35-.19.34-.11.66-.47.19-.2.34-.11.61-.47a8.67,8.67,0,0,0,.5-.9l.23-.57a11.87,11.87,0,0,0,0-1.58c0-.29-.06-.15-.12-.34s0-.2-.07-.34,0,0-.09-.12l-.22-.42a3.66,3.66,0,0,0-.81-.9l-.81-.5c-.2-.13-.06,0-.31-.1s-.09-.1-.33-.14a12.48,12.48,0,0,0-1.62,0c-.22,0-.17,0-.32-.07s-.6,0-.81,0c-1.64-.09-3.33,0-5-.11l-2.48-.08c-.23,0-.59.06-.73-.12l-.73-1c-.12-.17-.31-.31-.4-.46l-.34-.46c-.19-.2-.29-.42-.47-.62l-.66-.83A2.16,2.16,0,0,1,83,43.4c-.16-.29-.4-.47-.56-.75l-.91-1.16a2.58,2.58,0,0,1-.37-.48c-.19-.3-.42-.44-.6-.72a1.65,1.65,0,0,0-.15-.25,6.08,6.08,0,0,1-.39-.47c-.11-.19,0-.08-.19-.26a2,2,0,0,0-.19-.21c-.14-.16-.21-.33-.35-.51a5.39,5.39,0,0,1-.4-.45c-.1-.14,0-.12-.16-.26l-.61-.64c-.17-.17-.3-.27-.45-.42l-.4-.28c-.1,0,0,0-.1-.07a1,1,0,0,0-.15-.08l-.11-.06-.85-.41a4.39,4.39,0,0,0-.69-.18c-.37,0-.37-.13-.7-.15a5.11,5.11,0,0,0-1.62.06c-.29.13-.43,0-.69.16s-.75.21-.93.33l-.13.1-.12.06-.28.17c-.11.08,0,0-.14.09a.34.34,0,0,0-.12.06l-.12.1a2.58,2.58,0,0,1-.6.49c-.33.16,0,0-.57.64a3.07,3.07,0,0,0-.35.51l-.1.13-.47,1c-.11.38-.1.09-.17.64,0,.33-.14.11-.15.72a1.11,1.11,0,0,1-.14.7c-.14.42.11.69-.14,1.13-.1.17,0,.12,0,.29a2.45,2.45,0,0,1-.16,1c-.09.39,0,.62-.12,1s0,.78-.14,1.09,0,.61-.12,1.05c0,.24-.12.17-.13.51s0,.38,0,.56c0,.46-.15.2-.16,1,0,.52-.16.41-.16,1s-.15.64-.16,1a5.6,5.6,0,0,1-.16,1,2.78,2.78,0,0,1-.15,1,7.49,7.49,0,0,1-.07,1.09c-.11.26-.1.08-.11.49s-.09.22-.15.43a10.48,10.48,0,0,0,0,1.15c0,.39,0,.18-.12.39s0,.36,0,.54-.13.12-.15.43,0,.39,0,.58a9.87,9.87,0,0,1-.16,1v.86c0,.42.16.18.15.72a5.86,5.86,0,0,0,.2,1.47c0,.27,0,.13.11.29s0,.19.07.34,0,0,.12.24l1.11,1.86,1.33,1.33,0,0,0,0a.75.75,0,0,1,.09.09c.23.24.22.09.7.56l.21.2.21.19c.27.27.65.5.91.76a4.35,4.35,0,0,0,.48.38c.11.11,0,.09.19.21a3.38,3.38,0,0,1,.68.58l.34.29a3.16,3.16,0,0,1,.56.48c.57.54.68.5,1.13,1l.66.6a8.28,8.28,0,0,1,.89.78c.17.15.41.27.59.45l.24.2,0,0,.47.48c.12.12.86.57.9.77,0,.41,0,.22.11.47a8.17,8.17,0,0,1,.07,1.65c0,1,.12.35.12,1,0,.36,0,.75,0,1.08" transform="translate(0.3 -0.07)"/><path class="cls-2" d="M64.14,55.44a3.06,3.06,0,0,1,.08-1.18c.15-.33,0-.74.13-1.1s.11-.17.11-.52c0-.76.16-.61.16-1a2.52,2.52,0,0,1,.17-1.07,5.37,5.37,0,0,0,0-.57c0-.42.1-.23.15-.49s0-.67.12-1.09,0-.77.13-1.09a1,1,0,0,0,.08-.52,5.67,5.67,0,0,1,.18-1.08,6,6,0,0,1,0-.6c0-.38.11-.15.14-.44a3.77,3.77,0,0,1,.06-.89l.09-.2a5.2,5.2,0,0,1,.15-1.06c.13-.34,0-.8.11-1.11a1,1,0,0,0,.09-.53,6.47,6.47,0,0,0,0-2,4.24,4.24,0,0,0-.69-1.15l-.48-.48c-.12-.09-.24-.13-.36-.22-.45-.34-.55-.23-.87-.35a.89.89,0,0,0-.53-.11,4.66,4.66,0,0,1-1-.17l-.57,0a3.84,3.84,0,0,0-1.06-.16,1.38,1.38,0,0,1-.5-.13c-.36-.09-.75,0-1.09-.13a6.33,6.33,0,0,0-1.73,0c-.18,0-.07,0-.21.11s-.05-.09-.67.24a3.55,3.55,0,0,0-.7.5,1.21,1.21,0,0,0-.16.16l-.09.09-.31.41c-.05.1-.18.28-.23.4a2.25,2.25,0,0,0-.08.24c-.21.51-.09,0-.16.75,0,.31-.08.23-.13.45-.09.39.07.63-.13,1.09s0,.71-.14,1.07,0,.85-.11,1.15,0,0-.12.2a6.26,6.26,0,0,0,0,.87c0,.26-.11.28-.13.51s0,.36,0,.55-.12.18-.14.49a3.58,3.58,0,0,1-.13,1.09,1.16,1.16,0,0,0-.05.53c0,.49-.14.55-.16,1.07a2.14,2.14,0,0,1-.06.56,6.87,6.87,0,0,0-.13,1.1c-.05.22-.13.14-.15.43s0,.42,0,.63a3.89,3.89,0,0,0-.16,1.08c0,.34-.09.24-.13.46-.07.38.06.76-.13,1.1s0,.79-.12,1.1c-.06.12-.07,0-.1.23s.05.55-.1.79-.08.28-.08.56a4.83,4.83,0,0,0,.1,1.63c.13.24,0,.28.12.51l.22.38c0,.1,0,.12.09.21a2.49,2.49,0,0,0,.85.73c.17.09.2.22.31.28s0,0,.13,0l.06,0c.13.06,0,.06.24.12a1.29,1.29,0,0,1,.25.06c.35.15.4.06.81.1s.16.11.44.14.83-.07,1.13.1.17.1.5.1.27.06.48.13,1.1,0,1.42,0c.16,0,0,0,.19.1s.34,0,.5.08c.69.27.6.05,1,0,.19,0,.42,0,.57-.06s0,0,.2-.11l.61-.3a2.78,2.78,0,0,0,.81-.72c.09-.11,0,0,.1-.17s.12-.3.19-.44.07-.25.15-.43.06,0,.11-.21a1.51,1.51,0,0,0,0-.3c0-.29.11-.16.14-.46a4.36,4.36,0,0,1,.12-1.08,1.27,1.27,0,0,0,.07-.55c0-.46.08-.16.16-.44" transform="translate(0.3 -0.07)"/><path class="cls-2" d="M65.74,66.52c-.28,0-.28.52-.36.71s0,.33-.11.48l-.14.41c-.06.23-.1.08-.15.43s-.1.14-.15.38c0,.09,0,.12,0,.24s-.05,0-.1.17,0,.23-.11.43,0,.28-.14.45,0,0-.1.17a2.08,2.08,0,0,0,0,.23c-.07.28-.12,0-.15.45,0,.06,0,.15,0,.23s0,.06-.09.18,0,.15-.09.24,0,0-.1.15,0,.21-.1.45,0,.21-.1.44-.12.09-.16.4-.09.13-.15.41L63.2,74c-.09.21,0,.17-.14.44s0,.24-.1.44-.05,0-.1.21,0,.14,0,.22c-.08.23-.11,0-.15.41a.83.83,0,0,1-.12.41l-.15.39c-.1.19,0,.29-.1.48s0,0-.1.17,0,.12-.06.21a1,1,0,0,0-.13.48c0,.38-.09,0-.15.36s-.1.23-.16.45,0,.15,0,.24,0,0-.1.17,0,.26-.11.44,0-.08-.1.16,0,.14,0,.24-.09.1-.15.44-.1,0-.15.38l-.26.88c-.14.25-.05.24-.13.45s0,.06-.09.18,0,.13,0,.24c-.06.27-.1.11-.16.38a.93.93,0,0,1,0,.22l-.14.45c-.06.21,0,.06-.09.18s0,.21-.12.42,0,.21-.13.45-.07,0-.15.41-.09,0-.15.43c0,.19,0,.08-.06.21s0-.09-.09.19,0,.25-.09.44,0-.06-.08.19-.12.31-.19.67-.09,0-.15.38-.1.2-.16.44a1.6,1.6,0,0,1,0,.23c-.07.25,0,0-.1.17s0,.25-.12.48a3.83,3.83,0,0,0-.11,1.52c0,.94.12.65.17,1s0,.15.16.4c0,.09,0,.09.07.2l.2.38a9.92,9.92,0,0,0,.87,1,4.38,4.38,0,0,0,1.45.8c.23.09.09.11.46.14.14,0,.35,0,.51,0s.19.12.39.1.29-.07.44-.09l.54,0a2.66,2.66,0,0,0,.82-.31c.28-.09.15,0,.4-.15a5.6,5.6,0,0,0,.66-.46l.69-.71c.1-.11,0,0,.11-.16a2.09,2.09,0,0,1,.21-.34,4.6,4.6,0,0,0,.32-.8c0-.1.06-.12.09-.22l.2-.62c0-.35.12-.29.17-.63s.12-.18.16-.44.1-.2.15-.38,0-.16,0-.24c.07-.23.09,0,.15-.43s.1-.08.15-.4c0-.13,0-.13,0-.25s0,0,.1-.17,0-.18.13-.42,0-.19.07-.33.11,0,.16-.52.1-.14.16-.43a1.16,1.16,0,0,1,.14-.4c.05-.13,0-.15,0-.28s.11-.15.15-.39.11-.18.16-.42.14-.34.16-.58.09-.14.16-.37a2.24,2.24,0,0,1,0-.24c.06-.2,0-.06.1-.17s0-.24.12-.46,0,.09.09-.18a2.42,2.42,0,0,1,.14-.45,1.05,1.05,0,0,0,0-.24l.22-.65c.18-.4.07-.4.19-.61s0-.17.13-.4l.13-.43c0-.28.11-.08.16-.41a1.63,1.63,0,0,1,.14-.41l.16-.43c.06-.16,0-.24.1-.44s0-.21.12-.46.11-.13.15-.39a1.75,1.75,0,0,1,.21-.61c.11-.24.08-.41.21-.65s0-.26.1-.43.08,0,.14-.41.1,0,.16-.38.1-.21.15-.44,0-.14,0-.24,0,0,.1-.16,0-.2.13-.42.08-.17.08-.44l-1-.81s0,0,0,0a7.3,7.3,0,0,0-.81-.68.79.79,0,0,1-.24-.21,4.44,4.44,0,0,0-.66-.56c-.11-.08-.11-.14-.23-.23-.34-.24-.75-.72-1-.83L66.06,67a1.9,1.9,0,0,1-.19-.21,2.09,2.09,0,0,0-.13-.26" transform="translate(0.3 -0.07)"/><path class="cls-2" d="M76.53,19.52a6.54,6.54,0,0,0-.81.06c-.15.05-.08.08-.29.11-.65.11-.2.08-.68.18l-.77.36a5,5,0,0,0-1.07.69c-.08.09,0,0-.12.11l-.62.51a0,0,0,0,0,0,0l-.25.34c-.1.2-.25.26-.4.46s0,.14-.13.26a3,3,0,0,1-.21.25l-.13.27c-.08.13-.08.21-.14.31l-.4.91a1.1,1.1,0,0,0-.06.41c0,.28-.12.13-.15.73A7.62,7.62,0,0,0,70.39,28c0,.14,0,.22.06.35s.08,0,.14.31,0,.15.08.32,0,.1.11.35a2.73,2.73,0,0,0,.32.57,6.33,6.33,0,0,0,.72,1.05c.35.4.67.67,1,1l0,0,.14.14,0,0,.37.22,0,0,0,0,0,0,.91.46c.2,0,.25.12.5.17s.14.07.28.12.23,0,.37.08.09.1.35.11a8.3,8.3,0,0,0,2.78-.1,1.11,1.11,0,0,1,.37,0c.3,0,.17,0,.32-.12s.21,0,.34-.08,0,0,.13-.09.42-.15.62-.28a7,7,0,0,0,.93-.59c.1-.08.17-.1.28-.18s0,0,.22-.19a4.24,4.24,0,0,0,.67-.67,1.86,1.86,0,0,1,.36-.51L83.3,30c0-.06,0-.07,0-.13l.31-.6c.06-.18.09-.11.14-.31L84,28.5c.14-.73,0-.11.16-.51a.66.66,0,0,0,0-.2c0-.58.16-.6.16-1.17a2.34,2.34,0,0,0-.06-.85c-.14-.34-.06-.43-.1-.77s-.06-.12-.13-.27,0-.26,0-.41,0-.05,0-.13l0-.05a.13.13,0,0,1,0-.08l-.72-1.49a1.73,1.73,0,0,0-.21-.25,1.74,1.74,0,0,1-.19-.26l-.17-.23-.11-.12,0,0-.79-.7c-.22-.13-.43-.36-.65-.48L80,20c-.18-.09,0-.1-.31-.14s-.11,0-.3-.11a1.55,1.55,0,0,0-.36-.08c-.16-.06-.08-.1-.34-.12a10.67,10.67,0,0,0-2.11,0" transform="translate(0.3 -0.07)"/><path class="cls-2" d="M93.78,94.39a3.62,3.62,0,0,1,.56-.13.63.63,0,0,0,.4-.23.85.85,0,0,0,.35-.65c0-.16.06-.06.1-.21s0-2.1,0-2.56A1.8,1.8,0,0,1,95.3,90c.11-.24.07-.23.07-.55s0-.88,0-1.3c0-.17,0-.48,0-.63s0-.1.08-.25l.06-1.51c0-.44,0-.88,0-1.31s.06-.28.13-.54l0-3.11c0-.22.11-.32.12-.54l0-1.89c0-.3.1-.79.12-1.13a21.06,21.06,0,0,1,.09-2.48c.17-.35,0,0,.06-.53a22.33,22.33,0,0,1,.16-3.08c.07-.24.07-2.15.07-2.53,0-.63,0-.32.12-.56,0-.06,0-2.48.1-3a5.08,5.08,0,0,0,.08-1.24l.07-1.85c0-.53,0-.27.09-.55s0-1,0-1.26A4.07,4.07,0,0,1,97,59.5c.08-.41,0-.2-.06-.48s.12,0,.1-.52l.08-1.76c-.35,0,0,.16-.56.16H95.15c-.34,0-.47-.07-.53,0-.16.21,0,.92-.08,1.24s0,0-.08.25l0,.9a24.42,24.42,0,0,1-.15,3.62c-.08.56,0,2.23,0,2.49s-.13.11-.13.52a21.12,21.12,0,0,1-.11,3,22.81,22.81,0,0,0-.09,2.43l-.17,3.57c0,.25-.12.25-.13.53l0,1.9a5.41,5.41,0,0,1-.13,1.12l0,2.53c0,.54-.09.25-.13.54s0,2.66-.09,3.08a3.86,3.86,0,0,0-.09,1.14A17.34,17.34,0,0,1,93,87.48c0,.41.06.07,0,.53s0,1.83-.07,2.46c-.07.38-.13-.16-.13,1.18s-.24,1.84.43,2.45c.41.37.3,0,.58.29" transform="translate(0.3 -0.07)"/><path class="cls-2" d="M97.67,45.78c.06-.35,0-1.92,0-2.43a1.53,1.53,0,0,1,.12-.71,4.37,4.37,0,0,0,0-.82,1.15,1.15,0,0,0-.15-.67l-.1-.17c-.21-.32,0-.15-.25-.29a.85.85,0,0,0-.62-.18c-.61,0-.87.09-1.12.55s-.21.36-.21.62l0,1.63c0,.49-.12.18-.12.67s0,1.13,0,1.63c.28,0,1.73,0,1.92.06s.16.15.51.11" transform="translate(0.3 -0.07)"/></svg>