<?xml version="1.0" encoding="utf-8"?>
<!-- Generator: Adobe Illustrator 24.1.1, SVG Export Plug-In . SVG Version: 6.00 Build 0)  -->
<svg version="1.1" id="Layer_1" xmlns="http://www.w3.org/2000/svg" xmlns:xlink="http://www.w3.org/1999/xlink" x="0px" y="0px"
	 viewBox="0 0 152 113" style="enable-background:new 0 0 152 113;" xml:space="preserve">
<style type="text/css">
	.st0{fill-rule:evenodd;clip-rule:evenodd;fill:#FFFFFF;}
	.st1{fill-rule:evenodd;clip-rule:evenodd;fill:#B54343;}
</style>
<rect x="-0.3" y="0.07" class="st0" width="152" height="113"/>
<g>
	<path class="st1" d="M75.24,55.47c1.95-0.39,4.34,2.09,5.6,3.34c1.79,1.79,2.89,2.6,4.86,4.23c4.43,3.66,9.62-2.16,11.94-4.31
		c4.3-3.98,6.53-4.87,11.41,0.23c1.46,1.52,2.97,3.32,4.82,4.27c2.19,1.12,5.55,1.19,5.85-1.42c0.4-3.48-2.59-2.35-4.69-4.17
		c-1.52-1.32-2.65-3.03-4.56-4.53c-4.17-3.26-9.6-3.84-13.47-0.69c-5.51,4.48-6.77,8.64-10.37,4.93c-3.24-3.35-5.78-6.91-11.21-6.9
		c-5.88,0.02-7.71,2.92-11.51,6.68c-2.08,2.05-3.28,2.34-5.64-0.13c-1.65-1.72-2.79-3.15-4.47-4.54c-4.01-3.3-9.52-2.36-13.58,0.41
		c-1.54,1.05-3.37,3.69-4.52,4.57c-2.38,1.84-5.07,1.11-5.1,3.93c-0.04,3.61,3.97,2.31,5.84,1.81c1.41-0.37,3.64-2.79,4.9-4.12
		c4.13-4.37,7.01-5.32,11.27-0.41C64.06,71.88,67.22,57.07,75.24,55.47"/>
	<path class="st1" d="M46.25,67.55c6.98-1.55,11.96,17.3,23.03,3.47c9.64-12.04,13.03,9.83,23.48,4.04
		c4.14-2.29,5.83-7.49,10.62-7.58c4.09-0.08,6.69,5.91,10.46,7.64c1.94,0.89,5.79,1.64,5.99-1.56c0.19-3.06-3.02-2.17-5.02-4.08
		c-3.74-3.58-5.44-6.82-11.1-7c-6.25-0.2-7.96,3.02-11.59,6.59c-4.33,4.25-6.48-1.32-10.18-4.34c-3.83-3.13-9.75-3.16-13.44-0.1
		c-3.35,2.78-5.84,8.75-10.09,4.53c-1.4-1.39-2.95-3.32-4.56-4.54c-1.04-0.79-5.32-2.73-6.5-2.39c-3.81,1.09-3.01,0.14-6.73,2.39
		c-1.22,0.74-3.36,3.22-4.57,4.44c-2.28,2.31-4.81,1.41-5.37,3.74c-0.79,3.28,3.08,3.53,5.35,2.59
		C40.3,73.61,42.04,68.49,46.25,67.55"/>
	<path class="st1" d="M46.36,43.45c7.14-2.42,10.02,17.16,22.61,3.9c11.54-12.17,12.58,9.19,23.36,3.84
		c3.45-1.72,6.87-7.37,10.4-7.8c3.72-0.45,7.29,4.98,10.59,7.4c1.54,1.13,5.35,1.94,6.35-0.55c1.33-3.28-2.83-3.16-4.46-4.35
		c-3.44-2.5-4.88-6.93-10.68-7.51c-5.51-0.55-8.47,2.46-12.01,6.15c-5.14,5.35-6.22-0.84-10.18-3.48
		c-14.98-9.99-17.07,10.61-23.73,4.21c-3.39-3.26-5.85-6.91-11.3-6.9c-5.83,0.02-8.07,3.53-11.35,6.85
		c-2.13,2.17-4.92,1.11-5.36,3.75c-0.53,3.24,3.4,3.21,5.47,2.37C40.18,49.65,41.37,45.14,46.36,43.45"/>
</g>
</svg>
