<?xml version="1.0" encoding="utf-8"?>
<!-- Generator: Adobe Illustrator 24.1.1, SVG Export Plug-In . SVG Version: 6.00 Build 0)  -->
<svg version="1.1" id="Layer_1" xmlns="http://www.w3.org/2000/svg" xmlns:xlink="http://www.w3.org/1999/xlink" x="0px" y="0px"
	 viewBox="0 0 152 113" style="enable-background:new 0 0 152 113;" xml:space="preserve">
<style type="text/css">
	.st0{fill-rule:evenodd;clip-rule:evenodd;fill:#FFFFFF;}
	.st1{fill-rule:evenodd;clip-rule:evenodd;fill:#B54343;}
</style>
<rect x="-0.3" y="0.07" class="st0" width="152" height="113"/>
<g>
	<path class="st1" d="M73.66,30.11h-0.95V45.1c0,2.36-1.71,4.3-3.96,4.69V30.11h-4.77v19.67c-2.24-0.38-3.95-2.33-3.95-4.69V30.11
		h-0.95c-2.11,0-3.82,1.71-3.82,3.82V45.1c0,4.99,3.84,9.08,8.72,9.49v30.27h4.77V54.59c4.89-0.41,8.72-4.5,8.72-9.49V33.93
		C77.48,31.82,75.77,30.11,73.66,30.11"/>
	<path class="st1" d="M95.56,50.5V32.66c0-2.33-2.72-3.61-4.51-2.12c-3.58,2.98-5.65,7.39-5.65,12.06v14.89
		c0,3.46,2.29,6.38,5.44,7.34v20.03h4.77V50.5H95.56"/>
</g>
</svg>
