<svg id="Layer_1" data-name="Layer 1" xmlns="http://www.w3.org/2000/svg" viewBox="0 0 152 113"><defs><style>.cls-1{fill:#fff;}.cls-2{fill:#b54343;}</style></defs><rect class="cls-1" width="152" height="113"/><path class="cls-2" d="M98.23,34.08a11.15,11.15,0,0,0-3.2-.35H95a11.15,11.15,0,0,0-3.2.35,12,12,0,0,0-3,1.28,14,14,0,0,0-2.76,2.1,18.66,18.66,0,0,0-2.48,2.93,6.49,6.49,0,0,0-.47.82,6.76,6.76,0,0,0-.35.86l0,.07h0l0,.06v0L79.14,55.11v0l0,.14a1.14,1.14,0,0,0,.11.89,1.2,1.2,0,0,0,.71.55h0a1.17,1.17,0,0,0,1.43-.83l.75-2.8,1.16-4.33L84.55,53a20.6,20.6,0,0,0,3.55,7.43,9.22,9.22,0,0,0,13.79,0A20.58,20.58,0,0,0,105.43,53l1.27-4.3,1.92,7.13a1.15,1.15,0,0,0,.54.71,1.19,1.19,0,0,0,.89.12h0a1.15,1.15,0,0,0,.7-.55,1.18,1.18,0,0,0,.12-.89l0-.1-3.46-12.92h0l0-.07h0l0-.07a5.48,5.48,0,0,0-.34-.86,8,8,0,0,0-.48-.82,18.62,18.62,0,0,0-2.47-2.93,14,14,0,0,0-2.76-2.1,12.07,12.07,0,0,0-3.06-1.28M78.92,89.89a4,4,0,0,1-7.92,0V76.37a14.24,14.24,0,0,1-2.08.16,13.4,13.4,0,0,1-2-.15V80.2a4,4,0,1,1-7.91,0V72.06q-.3-.33-.57-.69a10.16,10.16,0,0,1-3.52.13V85.11a4,4,0,1,1-7.92,0V65.73a10.38,10.38,0,0,1-.8-6.6,13.26,13.26,0,0,1,0-21A10.34,10.34,0,0,1,58.43,25.91a13.26,13.26,0,0,1,21,0,10.37,10.37,0,0,1,11.51,5.78,14.36,14.36,0,0,0-3.49,1.48,17.17,17.17,0,0,0-3.25,2.46A21.74,21.74,0,0,0,81.39,39a8,8,0,0,0-.68,1.14,7.49,7.49,0,0,0-.48,1.23l0,.07h0l0,.06v0l0,.06v0l-3.49,13,0,.17v0a3.68,3.68,0,0,0,2.66,4.34l.17,0h0a3.7,3.7,0,0,0,2.62-.42A3.88,3.88,0,0,0,83,58h.15v0h.24v0h0a18.19,18.19,0,0,0,2.75,4.66l.06.07h0l.06.06h0l.06.07.06.06h0l.06.06h0l.06.07h0l0,.06h0l.06.06h0l.06.06h0l.06.06h0l.06.06h0l.06.06h0L87,63h0L87,63h0l0,.06h0l.06,0h0l.06.05h0l0,.05,0,0,.05.05h0l.06,0h0l.06,0v0l.06,0v0l0,0h0l0,.05h0l.06,0h0l.06,0v0l.06,0h0l0,0h0l0,0,0,0,0,0,0,0,.06,0h0l.05,0,0,0,0,0,0,0,0,0h0l.05,0,0,0,0,0,0,0,.06,0,0,0,0,0,0,0,0,0,0,0,.05,0h0l0,0,0,0,0,0,0,0,0,0,0,0,0,0h0l0,0,0,0,0,0,0,0,0,0,0,0,.05,0,0,0,.05,0,0,0,0,0,0,0,.05,0,0,0,0,0,0,0,0,0,0,0,0,0,0,0,0,0,0,0,0,0h.05l0,0,0,0,0,0,0,0h0l0,0,0,0,0,0h0l0,0,0,0,.06,0h0l.06,0h0l0,0,0,.12v8.83A3.92,3.92,0,0,1,90,76.92a7.93,7.93,0,1,1-5.46,7.54,7.9,7.9,0,0,1,2.88-6.11l-.48,0a4,4,0,0,1-4-4V71.49a10.37,10.37,0,0,1-3.6-.12c-.15.21-.32.41-.49.61Z" transform="translate(0.3 -0.07)"/></svg>