<?xml version="1.0" encoding="utf-8"?>
<!-- Generator: Adobe Illustrator 24.1.1, SVG Export Plug-In . SVG Version: 6.00 Build 0)  -->
<svg version="1.1" id="Layer_1" xmlns="http://www.w3.org/2000/svg" xmlns:xlink="http://www.w3.org/1999/xlink" x="0px" y="0px"
	 viewBox="0 0 152 113" style="enable-background:new 0 0 152 113;" xml:space="preserve">
<style type="text/css">
	.st0{fill-rule:evenodd;clip-rule:evenodd;fill:#FFFFFF;}
	.st1{fill-rule:evenodd;clip-rule:evenodd;fill:#B54343;}
</style>
<rect x="-0.3" y="0.07" class="st0" width="152" height="113"/>
<path class="st1" d="M95.97,32.93l15.2,26.33h-3.58l6.17,10.69h-3.37l6.39,11.07h-13.83L97.17,71h3.81l-7-12.12h4.06l-8.53-14.77
	L95.97,32.93 M49.89,83.55h14.04v3.86H49.89V83.55z M56.9,32.93l6.45,11.17l-8.53,14.77h4.06l-7,12.12h3.81l-5.79,10.03H36.08
	l6.39-11.07h-3.37l6.17-10.69H41.7L56.9,32.93z M88.95,83.55h14.04v3.86H88.95V83.55z M76.43,26.5l17.24,29.86h-4.06l7,12.12h-3.82
	l7.25,12.55H83.45v6.39H69.42v-6.39H52.83l7.25-12.55h-3.81l7-12.12H59.2L76.43,26.5z"/>
</svg>
