<?xml version="1.0" encoding="utf-8"?>
<!-- Generator: Adobe Illustrator 24.1.1, SVG Export Plug-In . SVG Version: 6.00 Build 0)  -->
<svg version="1.1" id="Layer_1" xmlns="http://www.w3.org/2000/svg" xmlns:xlink="http://www.w3.org/1999/xlink" x="0px" y="0px"
	 viewBox="0 0 152 113" style="enable-background:new 0 0 152 113;" xml:space="preserve">
<style type="text/css">
	.st0{fill-rule:evenodd;clip-rule:evenodd;fill:#FFFFFF;}
	.st1{fill-rule:evenodd;clip-rule:evenodd;fill:#B54343;}
</style>
<rect x="-0.3" y="0.07" class="st0" width="152" height="113"/>
<g>
	<path class="st1" d="M58.07,50.61c0-1.29,0.4-2,0.87-2.81l1.05-1.77c0.16-0.24,0.22-0.32,0.35-0.52c0.31-0.49,2.83-3.95,2.93-4.33
		c-0.45-0.01-0.85-0.15-1.3-0.21l-1.87-0.3c-1.73-0.37-2.3-0.42-3.87-1.22c-0.52-0.27-1.21-0.88-1.84-0.98
		c-1.31,2.47-2.77,4.83-4.08,7.29l-1.36,2.44c-0.31,0.47-0.42,0.74-0.7,1.25l-2.38,4.22c-0.46,0.79-2.26,3.73-2.31,4.3
		c0.29,0.11,0.25,0.18,0.51,0.46c0.85,0.89,1.56,1.92,2.35,2.85l0.6,0.81c0.73-0.53,0.58-0.95,1.97-1.39
		c1.28-0.41,2.79-0.13,3.92,0.59c1.36,0.87,1.55,1.88,2.13,2.74c0.54-0.36,0.83-1.15,1.31-1.61c0.01-0.01,0.13-0.12,0.17-0.15
		c1.29-1.17,2.48-1.23,4.13-0.81c1.4,0.36,2.62,1.59,3.16,2.91c0.66,1.58,0.32,1.75,0.32,2.82c2.21,0,4.21,1.55,4.83,3.62
		c0.14,0.47,0.25,0.59,0.27,1.14c0.01,0.46,0.03,0.89-0.11,1.2c0.45,0.11,0.49,0.03,1.06,0.12c1.04,0.17,1.91,0.63,2.65,1.37
		c3.51,3.51,0.31,6.6,0.19,7.07c0.6,0.05,1.22,0.4,1.82,0.57c0.56,0.16,1.27,0.37,1.86,0.52c1.78,0.46,3.9,0.95,5.74,0.42
		c1-0.28,3.06-1.69,3.15-2.7l-1.78-0.82c-0.2-0.11-0.33-0.16-0.51-0.25c-0.74-0.39-1.43-0.68-2.19-1.06
		c-0.78-0.39-4.19-1.78-4.19-2.42c0-0.55,0.12-1.08,0.87-1.08c0.63,0,5.14,2.43,6.33,2.98c0.24,0.11,0.42,0.19,0.66,0.32
		c0.24,0.12,0.36,0.18,0.59,0.28c0.67,0.3,1.24,0.69,2.01,0.81c0.33,0.05,0.45,0.05,0.81,0.05c2.01,0,2.84-0.49,3.39-2.24
		c0.16-0.51,0.19-0.81,0.19-1.44c-0.83-0.22-1.66-0.95-2.44-1.36c-1.35-0.71-2.56-1.56-3.9-2.27c-0.57-0.3-4.45-2.45-4.67-2.81
		c-0.37-0.61,0.13-1.36,0.82-1.36c0.51,0,1.13,0.58,1.57,0.82c0.53,0.28,0.96,0.52,1.44,0.83l4.32,2.51
		c0.87,0.44,3.67,2.35,4.48,2.35c2.36,0,4.12-0.77,4.12-3.25c0-1.23-0.33-1.19-1.61-1.86c-0.58-0.31-1.1-0.65-1.69-1.02
		c-0.6-0.37-1.14-0.66-1.69-1.02l-7.25-4.34c-0.17-0.1-0.24-0.12-0.42-0.22c-0.8-0.48-0.69-1.72,0.09-1.72
		c0.78,0,1.55,0.57,2.18,0.96l0.54,0.33c0.74,0.5,1.53,0.87,2.31,1.37l5.68,3.43c0.41,0.25,0.73,0.44,1.15,0.69
		c0.77,0.46,1.43,0.95,2.26,1.32c1.41,0.63,3.12,0.06,3.92-1.11c1.27-1.85,0.1-3.48-1.38-4.67l-2.83-2.26
		c-0.02-0.01-0.04-0.04-0.05-0.05c-0.83-0.76-1.82-1.28-2.64-2.02c-0.77-0.7-1.72-1.27-2.55-1.89c-0.23-0.17-0.41-0.25-0.65-0.43
		l-4.46-3.12c-1.31-0.86-2.6-1.78-3.98-2.52c-0.22-0.12-0.44-0.25-0.69-0.39c-0.99-0.6-7.93-4.56-8.55-4.62l-3.09,0.95
		c-0.02,0.01-0.05,0.03-0.06,0.04c-0.23,0.17-0.57,0.79-0.78,1.06l-0.15,0.18c-0.02,0.02-0.08,0.09-0.1,0.12
		c-0.63,0.78-1.34,1.57-2.11,2.23c-0.22,0.18-0.4,0.29-0.61,0.47c-2.33,1.96-7.16,3.81-9.32,2.05
		C58.22,52.41,58.07,51.58,58.07,50.61"/>
	<path class="st1" d="M59.8,51.05c0,0.96,1.24,0.76,1.84,0.76c1.34,0,2.39-0.43,3.27-0.84c2.02-0.94,3.31-2.24,4.7-3.86
		c0.02-0.02,0.04-0.04,0.05-0.06l0.1-0.12c1.75-2.09,0.26-1.25,3.53-2.32c2.39-0.78,1.74-0.88,4.84,0.79l3.11,1.65
		c3.3,1.91,5.18,2.94,8.5,5.15l6.8,4.79c1.35,0.93,4.45,3.41,5.96,4.66c0.52,0.43,0.32,0.79,1.93-0.21l3.77-3.38
		c0.22-0.22,0.48-0.51,0.79-0.62c-0.11-0.48-1.01-1.88-1.28-2.4l-1.36-2.43c-0.25-0.45-0.4-0.74-0.67-1.17l-7.14-12.69
		c-0.4-0.77-0.46-0.49-1.25-0.26c-1.72,0.48-2.71,0.51-4.45,0.33c-1.06-0.12-4.95-1.14-6.49-1.41c-3.08-0.54-5.74-0.68-8.88-0.42
		c-2.18,0.18-9.21,0.58-10.47,2.2c-0.48,0.62-0.87,1.2-1.33,1.81c-0.17,0.22-0.15,0.2-0.3,0.45l-0.7,0.92
		c-0.14,0.21-0.17,0.31-0.34,0.53l-2.57,3.71C61.04,47.78,59.8,49.21,59.8,51.05"/>
	<path class="st1" d="M33.69,54.95c0,0.67,0.62,0.84,1.4,1.31c0.86,0.51,4.71,2.99,5.31,3.14c0.76-0.66,2.97-5.02,3.59-6.05
		c0.17-0.27,0.27-0.51,0.42-0.77l1.77-3.11c0.16-0.29,0.26-0.49,0.42-0.77l4.44-7.81c0.17-0.31,0.23-0.5,0.41-0.78l3.04-5.52
		c0-0.52-1.03-1-1.46-1.25l-3.43-2.1c-2.54-1.51-1.59-1.62-3.71,1.91l-3.51,6.25c-0.3,0.54-0.58,0.95-0.86,1.52l-5.67,10.04
		c-0.17,0.29-0.27,0.54-0.46,0.84l-1.3,2.28C34.01,54.29,33.69,54.74,33.69,54.95"/>
	<path class="st1" d="M119.18,55.16c0-0.5-0.77-1.54-1.01-2.02l-9.56-16.98c-0.23-0.38-0.38-0.7-0.58-1.04l-1.15-1.99
		c-0.12-0.21-0.15-0.32-0.25-0.51c-0.08-0.15-0.18-0.31-0.28-0.48c-0.24-0.38-0.36-0.67-0.58-1.04c-0.8-1.34-0.69-1-2.74,0.23
		l-3.9,2.38c-0.31,0.18-0.75,0.35-0.81,0.8c-0.04,0.29,0.28,0.72,0.44,0.99l10.12,17.94c0.21,0.37,0.35,0.66,0.58,1.04l0.83,1.44
		c2.14,3.67,1.52,3.91,3.15,2.93c0.17-0.1,0.29-0.16,0.48-0.28c0.08-0.05,0.13-0.08,0.21-0.12l0.27-0.16
		c0.19-0.12,0.27-0.18,0.46-0.29l2.49-1.51C117.68,56.27,119.18,55.48,119.18,55.16"/>
	<path class="st1" d="M54.71,76.18c1.22,0,1.84-1.05,2.47-1.97c0.2-0.29,0.27-0.36,0.47-0.61l4.12-5.63
		c2.26-3.03-1.95-6.11-3.91-4.55l-5.4,7.27c-0.38,0.47-1,1.15-1,1.92c0,1.03-0.01,1.53,0.61,2.32c0.31,0.39,0.81,0.8,1.26,1.01
		C53.83,76.16,54.12,76.18,54.71,76.18"/>
	<path class="st1" d="M61.1,80.52c1.03,0,1.53-0.84,2.01-1.46c0.13-0.16-0.03,0.05,0.1-0.12c0.01-0.02,0.03-0.04,0.05-0.06
		l0.77-1.07c0.02-0.02,0.03-0.04,0.05-0.06l3.04-4.22c0.62-1.04,0.3-2.66-0.73-3.61c-1.03-0.95-2.69-1.29-3.64-0.33l-1.47,1.99
		c-0.28,0.41-0.47,0.6-0.74,1c-0.59,0.87-2.8,3.51-2.8,4.25c0,0.87-0.08,1.27,0.41,2.08c0.2,0.33,0.38,0.5,0.64,0.76
		C59.46,80.35,60.11,80.52,61.1,80.52"/>
	<path class="st1" d="M67.82,84.31c0.93,0,1.39-0.59,1.84-1.19c0.02-0.02,0.03-0.04,0.05-0.06l1.02-1.36
		c1.17-1.55,2.88-3.32,1.32-5.3c-0.01-0.02-0.03-0.04-0.05-0.06c-1.16-1.41-3.07-2.04-4.38-0.36l-1.75,2.37
		c-0.77,1.09-1.41,1.68-1.41,2.71c0,1.07,0.48,1.92,1.13,2.45C66.41,84.16,66.85,84.31,67.82,84.31"/>
	<path class="st1" d="M49.51,70.22c0.6,0,1.13-0.22,1.5-0.66l1.87-2.46c1.16-1.54,0.25-3.61-1.01-4.34l-0.91-0.39
		c-0.64-0.17-0.87-0.17-1.47,0.03c-0.92,0.3-1.32,1.19-1.87,1.92c-0.38,0.5-1.36,1.62-1.36,2.32c0,1.01,0.24,1.96,1.02,2.66
		C47.84,69.81,48.49,70.22,49.51,70.22"/>
</g>
</svg>
