<svg id="Layer_1" data-name="Layer 1" xmlns="http://www.w3.org/2000/svg" viewBox="0 0 1494.34 561.87"><defs><style>.cls-1{fill:#b54343;}.cls-2{fill:#fff;}</style></defs><rect class="cls-1" x="215.34" y="21.79" width="1279" height="520"/><path class="cls-2" d="M209.76,140c-6.8-2.15-12.29-2.58-16.58-1.85a13.85,13.85,0,0,0-7.81,3.86,12,12,0,0,0-3.1,6.39,11.62,11.62,0,0,0,1,7.29,12.49,12.49,0,0,0,6.27,5.18,11.77,11.77,0,0,0,6.5.79,11.14,11.14,0,0,0,6.26-3.84c3.09-3.51,5.73-9.21,7.41-17.82m32.48,120.23c-4.81-5.26-9.35-8.37-13.46-9.88a14,14,0,0,0-8.71-.55l-.46.13a12,12,0,0,0-5.4,3.84,11.8,11.8,0,0,0-2.77,6.89,12.42,12.42,0,0,0,2.89,7.59,11.54,11.54,0,0,0,5.2,3.92,11.3,11.3,0,0,0,7.39-.21C231.35,270.44,236.48,266.82,242.24,260.21ZM210.19,380.63c-1.54-7-3.9-12-6.7-15.3a13.94,13.94,0,0,0-7.3-4.87,12,12,0,0,0-7,.54l-.55.19a11.62,11.62,0,0,0-5.25,4.35A12.62,12.62,0,0,0,182,373.6a11.73,11.73,0,0,0,2.53,6,11.16,11.16,0,0,0,6.5,3.48C195.67,384,201.94,383.45,210.19,380.63Zm-87.95,88.18c2.17-6.81,2.6-12.29,1.84-16.59a13.62,13.62,0,0,0-3.84-7.8,12.13,12.13,0,0,0-6.39-3.11,11.71,11.71,0,0,0-7.29,1.07,12.42,12.42,0,0,0-5.18,6.26,11.69,11.69,0,0,0-.79,6.5,11.12,11.12,0,0,0,3.84,6.27C108,464.5,113.65,467.12,122.24,468.81ZM2,501.3c5.25-4.83,8.36-9.37,9.86-13.48a13.64,13.64,0,0,0,.54-8.7l-.11-.46a12.11,12.11,0,0,0-3.83-5.4,11.79,11.79,0,0,0-6.9-2.76A12.45,12.45,0,0,0-6,473.38a11.59,11.59,0,0,0-3.91,5.2,11.22,11.22,0,0,0,.2,7.39C-8.22,490.4-4.59,495.53,2,501.3ZM-118.4,469.25c7-1.55,12-3.91,15.3-6.72a13.91,13.91,0,0,0,4.87-7.3,11.92,11.92,0,0,0-.55-7l-.19-.54a11.46,11.46,0,0,0-4.34-5.26,12.57,12.57,0,0,0-8-1.31,11.53,11.53,0,0,0-6,2.53,11.21,11.21,0,0,0-3.47,6.49C-121.78,454.72-121.22,461-118.4,469.25Zm-88.19-87.95c6.83,2.16,12.3,2.59,16.6,1.84a13.77,13.77,0,0,0,7.8-3.84,12.09,12.09,0,0,0,3.11-6.39,11.67,11.67,0,0,0-1.06-7.31,12.48,12.48,0,0,0-6.27-5.17,11.68,11.68,0,0,0-6.5-.78,11,11,0,0,0-6.26,3.84C-202.26,367-204.89,372.7-206.59,381.3Zm-32.47-120.22c4.82,5.25,9.35,8.36,13.47,9.86a13.72,13.72,0,0,0,8.7.55l.46-.12a12,12,0,0,0,5.4-3.84,11.77,11.77,0,0,0,2.76-6.9,12.47,12.47,0,0,0-2.87-7.58,11.71,11.71,0,0,0-5.21-3.92,11.11,11.11,0,0,0-7.39.22C-228.17,250.84-233.3,254.47-239.06,261.08Zm32-120.43c1.55,7,3.92,12,6.72,15.3a13.93,13.93,0,0,0,7.3,4.87,12,12,0,0,0,7-.54l.55-.19a11.55,11.55,0,0,0,5.24-4.35,12.34,12.34,0,0,0,1.31-8.05,11.75,11.75,0,0,0-2.52-6,11.23,11.23,0,0,0-6.49-3.46C-192.49,137.27-198.74,137.82-207,140.65Zm88-88.18c-2.16,6.8-2.59,12.29-1.84,16.58a13.87,13.87,0,0,0,3.85,7.82,12.13,12.13,0,0,0,6.4,3.09,11.53,11.53,0,0,0,7.28-1,12.46,12.46,0,0,0,5.18-6.26,11.76,11.76,0,0,0,.79-6.52,11.15,11.15,0,0,0-3.84-6.25C-104.76,56.79-110.47,54.15-119.07,52.47ZM-131.93,30.4A93.58,93.58,0,0,1-110.46,3a92.82,92.82,0,0,1,37.1-19.83,93.06,93.06,0,0,1,42.07-1.57A93.82,93.82,0,0,1,1.07-5.54a94.17,94.17,0,0,1,32.33-13A93.42,93.42,0,0,1,134.23,29.87a93.36,93.36,0,0,1,97.6,97.25,93.3,93.3,0,0,1,35.93,133,93.93,93.93,0,0,1,13,32.34,93.06,93.06,0,0,1-21.05,79.2,94,94,0,0,1-27.33,21.63,93,93,0,0,1-27.15,70.21,92.54,92.54,0,0,1-35.63,22.35,93.85,93.85,0,0,1-34.47,5.05,93.27,93.27,0,0,1-133,35.92,93.86,93.86,0,0,1-32.34,13,93,93,0,0,1-42-1.36,92.76,92.76,0,0,1-37.15-19.71,94,94,0,0,1-21.64-27.32,93.66,93.66,0,0,1-34.47-4.89,93.19,93.19,0,0,1-35.73-22.25,93.1,93.1,0,0,1-22.37-35.63,94.1,94.1,0,0,1-5-34.47,93.82,93.82,0,0,1-27.41-21.49,93,93,0,0,1-19.84-37.1,93.15,93.15,0,0,1-1.56-42.06,93.64,93.64,0,0,1,12.88-32.36,93.91,93.91,0,0,1-13-32.33,92.92,92.92,0,0,1,1.34-42,93.08,93.08,0,0,1,19.71-37.17A94,94,0,0,1-229.18,128a93.4,93.4,0,0,1,4.9-34.47A92.73,92.73,0,0,1-202,57.78,93.13,93.13,0,0,1-166.4,35.43,94.08,94.08,0,0,1-131.93,30.4Zm104.07-3.94A52.27,52.27,0,0,1-15.95,8.27,72.92,72.92,0,0,0-35.22,1.64,72.32,72.32,0,0,0-68,2.86,72.64,72.64,0,0,0-97,18.31a72.86,72.86,0,0,0-13.2,15.24c9.94,2.57,17.21,6.43,22.37,11A31.14,31.14,0,0,1-77.31,62.38a32,32,0,0,1-2,17.93c-3,7.28-8.44,13.42-14.45,16.62A32.41,32.41,0,0,1-114,100.11a32.29,32.29,0,0,1-17.13-8.46A33.86,33.86,0,0,1-141,72.54a52.64,52.64,0,0,1,1.2-21.71,73.19,73.19,0,0,0-20,3.9,72.52,72.52,0,0,0-27.8,17.48,72.72,72.72,0,0,0-17.35,27.85,73,73,0,0,0-3.79,19.83c9.91-2.75,18.14-3,24.84-1.73a31.13,31.13,0,0,1,18,10.26A31.78,31.78,0,0,1-158.62,145a33.18,33.18,0,0,1-4.25,21.59,32.12,32.12,0,0,1-15,12.47,8,8,0,0,1-.89.39,32.55,32.55,0,0,1-19.12,1.22,33.82,33.82,0,0,1-18.1-11.55,52.82,52.82,0,0,1-9.83-19.42A72.92,72.92,0,0,0-241.12,163a72.79,72.79,0,0,0-15.32,29.08,72.51,72.51,0,0,0-1.13,32.83,72.42,72.42,0,0,0,6.62,19c7.22-7.33,14.19-11.71,20.7-13.91a31,31,0,0,1,20.68-.14A32,32,0,0,1-195,240.55a33.35,33.35,0,0,1,7.12,20.87,32.37,32.37,0,0,1-7.3,19,32.41,32.41,0,0,1-15.17,10.37c-.24.1-.5.19-.74.27a33.92,33.92,0,0,1-21.51-1,52.2,52.2,0,0,1-18.18-11.9,72.55,72.55,0,0,0-6.63,19.25,72.54,72.54,0,0,0,1.21,32.81,72.55,72.55,0,0,0,15.47,29,72.48,72.48,0,0,0,15.24,13.18c2.56-9.93,6.41-17.2,11-22.36a31.16,31.16,0,0,1,17.88-10.51,32,32,0,0,1,17.92,2c7.29,3,13.43,8.44,16.62,14.45a32.38,32.38,0,0,1,3.18,20.18,32.48,32.48,0,0,1-8.45,17.14,34,34,0,0,1-19.11,9.94,53,53,0,0,1-21.72-1.19A73,73,0,0,0-204.33,422a72.74,72.74,0,0,0,17.49,27.82A72.75,72.75,0,0,0-159,467.17a73.73,73.73,0,0,0,19.83,3.8c-2.76-9.92-3.07-18.15-1.74-24.85a31.23,31.23,0,0,1,10.27-18,31.79,31.79,0,0,1,16.54-7.26,33.3,33.3,0,0,1,21.58,4.24,32.09,32.09,0,0,1,12.47,15c.14.28.27.59.39.89a32.39,32.39,0,0,1,1.21,19.12A33.86,33.86,0,0,1-90,478.18,52.64,52.64,0,0,1-109.4,488a73.26,73.26,0,0,0,13.33,15.34A72.48,72.48,0,0,0-67,518.66a72.24,72.24,0,0,0,32.83,1.14,72.51,72.51,0,0,0,19-6.62C-22.47,506-26.86,499-29,492.48a31.07,31.07,0,0,1-.16-20.68,32,32,0,0,1,10.72-14.57c6.19-4.79,14-7.37,20.85-7.12a32.29,32.29,0,0,1,19,7.3,32.52,32.52,0,0,1,10.38,15.17,6.49,6.49,0,0,1,.26.74,34,34,0,0,1-1,21.5A52.37,52.37,0,0,1,19.14,513a72.81,72.81,0,0,0,94.23-25.28c-9.94-2.58-17.22-6.44-22.37-11a31.16,31.16,0,0,1-10.51-17.88,31.89,31.89,0,0,1,2-17.91c3-7.3,8.44-13.44,14.45-16.63a32.73,32.73,0,0,1,37.32,5.27,33.89,33.89,0,0,1,9.93,19.11A52.44,52.44,0,0,1,143,470.44a72.73,72.73,0,0,0,68.9-69.06c-9.91,2.77-18.14,3.07-24.84,1.73a31.18,31.18,0,0,1-18-10.25,32.07,32.07,0,0,1-7.27-16.55A33.3,33.3,0,0,1,166,354.73a32.3,32.3,0,0,1,15-12.47,8.87,8.87,0,0,1,.89-.39A32.42,32.42,0,0,1,201,340.66a33.77,33.77,0,0,1,18.09,11.54c4,4.8,7.45,11.21,9.82,19.43a72.78,72.78,0,0,0,25.18-94.26c-7.2,7.33-14.19,11.73-20.69,13.92a31.09,31.09,0,0,1-20.69.15,32.12,32.12,0,0,1-14.57-10.72,33.39,33.39,0,0,1-7.12-20.85,32.62,32.62,0,0,1,22.48-29.4c.23-.09.48-.17.74-.25a33.92,33.92,0,0,1,21.49,1A52.82,52.82,0,0,1,254,243.09a73.25,73.25,0,0,0,6.62-19.25,72.8,72.8,0,0,0-31.9-75c-2.58,9.94-6.44,17.21-11,22.36a31.09,31.09,0,0,1-17.87,10.5,32,32,0,0,1-17.93-2c-7.29-3-13.42-8.45-16.62-14.46A32.69,32.69,0,0,1,170.58,128a33.82,33.82,0,0,1,19.09-10,52.89,52.89,0,0,1,21.73,1.2,73.56,73.56,0,0,0-3.89-20,72.74,72.74,0,0,0-65.17-48.94c2.75,9.91,3.07,18.15,1.72,24.85a31,31,0,0,1-10.26,18,31.83,31.83,0,0,1-16.53,7.28,33.44,33.44,0,0,1-21.59-4.25,32.3,32.3,0,0,1-12.47-15c-.14-.29-.27-.59-.38-.89a32.33,32.33,0,0,1-1.22-19.13A33.79,33.79,0,0,1,93.15,43.1a52.67,52.67,0,0,1,19.42-9.82A72.77,72.77,0,0,0,18.34,8.1c7.31,7.2,11.7,14.2,13.9,20.69a31.09,31.09,0,0,1,.14,20.69A32,32,0,0,1,21.68,64,33.36,33.36,0,0,1,.81,71.17a32.34,32.34,0,0,1-19-7.31A32.35,32.35,0,0,1-28.58,48.69a7.12,7.12,0,0,1-.26-.74A33.93,33.93,0,0,1-27.86,26.46ZM1.15,20c-5.24,4.81-8.36,9.35-9.86,13.46a13.9,13.9,0,0,0-.55,8.71l.12.45A12,12,0,0,0-5.29,48,11.83,11.83,0,0,0,1.6,50.79,12.46,12.46,0,0,0,9.18,47.9a11.44,11.44,0,0,0,3.91-5.19,11.22,11.22,0,0,0-.2-7.41C11.4,30.89,7.77,25.75,1.15,20ZM121.58,52c-7,1.54-12,3.91-15.3,6.71A14,14,0,0,0,101.4,66a12.08,12.08,0,0,0,.55,7l.19.54a11.63,11.63,0,0,0,4.35,5.25,12.56,12.56,0,0,0,8.05,1.31,11.59,11.59,0,0,0,6-2.54A11.09,11.09,0,0,0,124,71.16C125,66.57,124.39,60.3,121.58,52Z" transform="translate(279.34 20.29)"/><path class="cls-2" d="M-105.83,219.15c-9.08,12.82-13.3,23.91-14.11,33.16-.64,7.27.88,13.29,3.75,18a26,26,0,0,0,11.64,10.14,25.66,25.66,0,0,0,16.19,1.85c5-1.16,10.51-4.89,14.52-10.18a25.4,25.4,0,0,0,5.32-13.33c.38-4.87-.88-10.22-4.55-15.71-5.38-8.09-15.65-16.34-32.76-23.91M107.62,301a108,108,0,0,1-31.28,68.39A107.94,107.94,0,0,1-.16,401.23a108,108,0,0,1-76.65-31.58,107.9,107.9,0,0,1-31.57-68.81,47.51,47.51,0,0,1-4.52-1.76A46.57,46.57,0,0,1-133.6,281c-5-8.21-7.71-18.47-6.66-30.44,1.26-14.16,7.89-30.84,22.51-49.4a7.85,7.85,0,0,1,.47-.66A146.85,146.85,0,0,1-66,158.63a145.82,145.82,0,0,1,64.25-15,145.74,145.74,0,0,1,64.3,14.76A147,147,0,0,1,114,200c.16.21.32.42.46.64,16.76,21.07,23.92,39,25,53.57v.32c.76,11.56-2.25,21.15-7.44,28.72a45.9,45.9,0,0,1-20.25,16.18C110.42,300,109,300.53,107.62,301ZM95,282.87a10.66,10.66,0,0,1,2.54-.36,31.31,31.31,0,0,0,6.41-1.92,25.66,25.66,0,0,0,11.3-8.88c2.74-4,4.3-9.27,3.88-15.86v-.16c-.65-9.68-5.41-21.91-16.37-36.93-14.29,6.56-23.49,14.06-28.82,21.65-4.21,6-5.92,12-5.79,17.5a26.14,26.14,0,0,0,5,14.57,25.73,25.73,0,0,0,13.08,9.66A22.54,22.54,0,0,0,95,282.87ZM-10.44,380.2l-.06-28.46c-2-.19-3.91-.42-5.84-.71a106.56,106.56,0,0,1-15.76-3.56,10.2,10.2,0,0,1-6.78-12.74A10.21,10.21,0,0,1-26.14,328a86.08,86.08,0,0,0,12.72,2.85,89.05,89.05,0,0,0,13.12.94,89.85,89.85,0,0,0,13.34-1,87.23,87.23,0,0,0,13-3,10.21,10.21,0,1,1,6.1,19.48,106.64,106.64,0,0,1-16,3.75c-2,.31-4.08.56-6.15.77L10,380.16a87.6,87.6,0,0,0,51.83-25.23,87.68,87.68,0,0,0,25-51.89,39.15,39.15,0,0,1-6.63-1.38,47.05,47.05,0,0,1-32.5-43.32c-.24-9.61,2.53-19.83,9.42-29.65,6.57-9.33,16.91-18.35,32.09-26.08a126.45,126.45,0,0,0-35.59-25.92A125.67,125.67,0,0,0-1.69,164.1,125.38,125.38,0,0,0-57,176.92a125.88,125.88,0,0,0-35.42,26c18.07,8.77,29.61,18.75,36.36,28.87,6.43,9.65,8.63,19.43,7.92,28.57a46,46,0,0,1-9.46,24.13c-6.86,9-16.73,15.53-26.25,17.72-1.27.28-2.53.51-3.82.68a87.59,87.59,0,0,0,25.3,52.31A87.52,87.52,0,0,0-10.44,380.2Z" transform="translate(279.34 20.29)"/></svg>